<?xml version="1.0" encoding="UTF-8"?>
<svg id="Layer_2" xmlns="http://www.w3.org/2000/svg" viewBox="0 0 403.54 108.33">
  <g id="Layer_1-2" data-name="Layer_1">
    <g>
      <path d="M85.74,102.77c1.45-1.95,2.85-4.21,4.6-6.13,2.07-2.27,4.45-4.26,6.69-6.36,1.15-1.08,2.1-.96,2.9.61-1.61,1.28-3.24,2.57-5,3.97,3.99.42,7.92.51,11.7,1.31,3.74.8,7.33,2.3,10.6,3.37v-23.46c-4.71,3.89-8.89,7.35-13.22,10.93-2.82-3.24-5.58-6.4-8.54-9.8-.43.34-1.05.79-1.64,1.28-8.33,6.98-17.91,10.66-28.8,10.6-19.54-.12-37.09-17.1-37.95-36.62-.6-13.6,9.32-27.55,22.37-31.45.45-.13.92-.16,2.21-.36-7.58,7.13-11.21,15.38-11.02,25.04.19,9.72,4.26,17.93,11.13,24.65,9.6,9.4,25.42,14.37,45.33,4.41,0-9.71,0-19.76,0-29.81,0-1.05-.11-2.14.11-3.16.73-3.34-1.37-5.36-3.45-7.24-.59-.53-2.07-.08-3.49-.08,3.86-3.42,7.69-6.83,11.79-10.46,2.02,2.66,4.03,5.16,5.84,7.8.49.72.52,1.86.5,2.8-.24,10.7-.29,21.42-.92,32.1-.28,4.75.99,8.23,4.95,10.79,1.41-1.03,2.95-2.06,4.37-3.24.39-.32.56-1.09.57-1.66.22-10.71.47-21.41.51-32.12,0-1.52-.94-3.13-1.71-4.55-.6-1.1-1.63-1.97-2.53-3.02,3.07-2.85,6.01-5.58,9.09-8.44,2.06,2.42,4.02,4.57,5.79,6.87.52.68.73,1.78.71,2.69-.46,19.87-1,39.74-1.42,59.61-.05,2.25-.76,3.61-2.61,4.96-3.78,2.76-7.34,5.84-10.85,8.95-1.07.94-1.69,1.02-2.87.28-4.88-3.08-10.26-4.91-15.97-5.43-3.14-.29-6.35.22-9.76.37Z"/>
      <path d="M200.06,102.9c2.7-5.49,7.85-9.25,12.3-13.64.38.23.59.34.78.48.33.24.64.5,1.13.88-1.89,1.58-3.6,3.01-5.88,4.91,8.76-.88,16.42.92,23.55,4.75-.96-7.71-1.91-15.26-2.9-23.26-3.73,3.35-7.47,6.71-11.27,10.13-3.13-1.81-6.25-3.52-9.24-5.43-.64-.41-1.19-1.55-1.17-2.34.24-14.44.57-28.88.93-43.32.02-.67.42-1.66.94-1.92,2.59-1.32,5.46-2.15,7.86-3.72,2.34-1.52,4.25-3.71,6.52-5.77,6.27,4.21,13.14,7.08,20.88,7.16.03.31.11.54.06.57-3.4,2.3-3.74,5.7-3.72,9.42.08,17.69.02,35.37.1,53.06,0,1.83-.59,2.92-2.02,4.02-3.52,2.73-6.91,5.63-10.24,8.59-.99.88-1.63.88-2.71.28-4.79-2.65-9.82-4.78-15.32-5.17-3.48-.25-7,.19-10.57.32ZM219.16,33.65c-.24,10.8-.13,21.52-.86,32.18-.38,5.56,1.4,9.36,5.75,12.34.13.09.3.1.57.19,1.02-.8,2.21-1.54,3.13-2.54.68-.74,1.4-1.81,1.43-2.75.28-9.4.43-18.8.6-28.21.04-2.24,0-4.49,0-6.36-3.61-1.65-7.03-3.22-10.62-4.86Z"/>
      <path d="M401.71,77.88c-3.54,4.35-8.29,7.45-12.51,11.65-2.29-2.82-4.45-5.42-6.52-8.09-.34-.44-.4-1.21-.38-1.82.36-12.96.77-25.93,1.11-38.89.02-.73-.29-1.68-.79-2.17-1.43-1.41-3.04-2.63-4.61-3.95-1.99,1.58-3.98,3.09-5.87,4.72-.4.34-.55,1.14-.57,1.73-.34,10.79-.7,21.57-.86,32.36-.02,1.22.96,2.59,1.77,3.66.76,1,1.92,1.71,3.14,2.75-3.73,3.22-7.37,6.36-11.16,9.63-2.72-3.13-5.41-6.23-8.46-9.74,4.1-1.6,3.47-4.9,3.51-7.96.19-14.2.38-28.4.53-42.6.06-5.09,0-10.18,0-15.52-1.46.35-3,.72-4.76,1.15-.26-.95-.52-1.92-.7-2.58,6.86-2.55,13.48-5.01,19.84-7.37-5.13,10.22-1.78,21.59-3.55,32.48l.89.41c5.18-4.55,10.37-9.09,15.71-13.78,2.58,3.01,5.12,5.83,7.44,8.82.54.7.47,2,.44,3.02-.4,11.76-.76,23.52-1.32,35.27-.16,3.38.72,6.04,3.71,8.18.99-.64,2.1-1.36,3.2-2.08.25.24.5.49.75.73Z"/>
      <path d="M318.05,34.4c-.67.27-1.31.54-1.96.8-.14-.16-.28-.33-.42-.49,3.79-3.46,7.57-6.91,11.35-10.36,4.38,3.86,6.76,7.56,7.15,11.58,4.6-4.17,8.92-8.09,12.77-11.58,3.09,2.81,6.13,5.47,9.02,8.29.51.5.58,1.64.56,2.49-.24,13.55-.5,27.1-.85,40.64-.02.86-.61,2.24-1.24,2.45-5.91,2.02-10.38,5.88-14.24,10.66-2.32-1.28-4.61-2.53-7.3-4.01v14.06c1.47-.43,3.03-.89,4.73-1.39.26,1.03.48,1.88.72,2.85-6.61,2.38-13.12,4.72-19.64,7.07,5.61-7.18,2.48-15.46,3.55-23.36-2.46-.16-4.53-.3-6.48-.43,1.69-1.84,3.44-3.6,4.99-5.51.69-.85,1.39-2,1.42-3.04.29-11.44.48-22.88.59-34.32,0-.91-.53-1.97-1.13-2.71-1.06-1.31-2.36-2.43-3.6-3.68ZM338.9,34.18c-4.09,2.3-5.86,5.56-5.32,10.09.19,1.59-.08,3.23-.08,4.85-.01,8.98,0,17.97,0,27.18,3.34,1.3,7.15,2.77,11.69,4.53,0-13.54,0-26.72-.03-39.91,0-.55-.36-1.24-.77-1.64-1.79-1.75-3.65-3.42-5.48-5.11Z"/>
      <path d="M169.22,78.14c-6.61,1.33-11.23,5.68-15.32,10.76-2.22-1.32-4.36-2.58-6.98-4.13v14.01c1.44-.49,2.98-1.01,4.74-1.6.22,1.13.4,2.06.59,3.04-6.6,2.41-13.08,4.77-19.56,7.14,5.68-7.17,2.45-15.49,3.5-23.56h-6.5c-.1-.2-.19-.41-.29-.61,1.75-1.6,3.59-3.11,5.21-4.84.8-.86,1.65-2.09,1.68-3.18.32-11.43.48-22.86.68-34.29.02-1.36-3.5-6.19-4.74-6.29-.69-.06-1.44.42-2.51.21,3.91-3.51,7.82-7.02,12-10.78,1.95,3.93,6.74,5.89,6.46,11.64,4.58-4.07,8.83-7.86,12.95-11.53,3.05,2.91,6.03,5.73,8.95,8.61.33.33.4,1.05.39,1.58-.33,14.43-.69,28.86-1.06,43.28,0,.15-.1.31-.18.56ZM152.64,33.78c-1.53,1.46-3.09,2.87-4.54,4.37-.33.35-.44,1.03-.45,1.56-.26,11.59-.51,23.19-.71,34.78-.01.64.23,1.69.63,1.85,3.54,1.46,7.15,2.75,11.39,4.34,0-13.4.02-26.28-.04-39.16,0-.88-.39-1.95-.97-2.59-1.57-1.73-3.34-3.27-5.31-5.16Z"/>
      <path d="M319.69,75.98c.07,1.91-5.17,7.11-12.23,12.3-2.61-3.66-6.41-6.6-6.1-12.63-5.37,4.6-10.16,8.71-15.05,12.9-2.13-2.49-4.24-4.82-6.18-7.3-.59-.76-.97-1.91-.96-2.88.05-6.41.21-12.81.39-19.22.02-.64.27-1.54.72-1.86,3.54-2.4,7.15-4.67,10.52-6.84,0,5.52.43,11.12-.13,16.61-.51,4.99,1.94,7.88,5.45,10.64,3.18-2.24,5.93-4.44,5.51-9.21-.48-5.46-.11-10.99-.11-16.8-5.5.32-10.35-2.02-14.39-5.79-2.07-1.93-3.51-4.56-5.11-6.95-.82-1.23-.53-2.42.66-3.42,4.76-4.02,9.49-8.08,14.34-12.22,4.71,3.55,10.01,6.11,15.8,7.58,1.43.36,1.45,1.21,1.4,2.34-.32,7.7-.66,15.4-.89,23.1-.16,5.19-.2,10.38-.18,15.57,0,1.09.26,2.3.78,3.24,1.63,2.95,2.14,2.98,5.76.85ZM288.37,32.54c-.42.73-2.05,2.29-1.77,3.31.92,3.29,2.14,6.64,4,9.48,2.58,3.94,6.73,4.92,11.8,4.17,0-3.49.05-6.95-.06-10.4-.01-.46-.76-1.08-1.3-1.31-4.03-1.72-8.1-3.37-12.68-5.25Z"/>
      <path d="M110.93,5.32c-6.55,12.5-22.62,21.16-36.59,19.84-7.07-.67-13.83-2.32-20.41-5.09-8.27-3.49-16.64-6.81-25.16-9.61-5.85-1.92-11.99-1.8-17.9.54-4.96,1.97-8.47,5.3-9.84,10.6-.06.22-.23.41-.37.6-.03.04-.14.03-.47.09-.57-4.06.06-7.85,2.31-11.26C8.65,1.73,17.87-.59,28.2.12c7.85.54,15.09,3.46,22.36,6.29,7.14,2.78,14.33,5.72,21.77,7.41,13.47,3.06,26.05.15,37.37-7.86.26-.19.52-.38.8-.55.12-.07.28-.07.42-.11Z"/>
      <path d="M194.73,78.29c4.5-1.67,2.47-5.96,3.57-9.33,2.18,1.43,4.24,2.79,6.49,4.27-5.32,4.89-10.42,9.61-15.59,14.25-.36.32-1.34.3-1.84.06-4.27-2.13-8.52-4.3-12.7-6.6-.65-.36-1.29-1.44-1.27-2.18.37-13.93.83-27.86,1.33-41.79.03-.75.39-1.9.94-2.17,6.79-3.38,13.65-6.63,20.64-9.98,2.95,5.84,5.98,11.73,8.86,17.7.26.53-.23,1.83-.78,2.27-5.82,4.65-11.69,9.25-17.62,13.75-1.31.99-1.81,2.03-1.81,3.64.01,3.29-.25,6.58-.25,9.87,0,.69.47,1.73,1.03,2.02,2.93,1.51,5.96,2.83,8.98,4.23ZM186.66,31.49c-.28.08-.55.16-.83.24v25.28c3.51-2.72,6.85-5.31,10.27-7.96-3.23-6.01-6.34-11.78-9.44-17.55Z"/>
      <path d="M256.2,24.13c2.08,3.8,6.39,6,6.16,11.65,4.65-3.99,8.88-7.62,13.11-11.24,1.86,4.23,3.62,8.22,5.45,12.39-3.12,2.43-6.36,4.93-9.51,7.38-1.84-3.1-3.6-6.07-5.39-9.09-2.55,1.52-3.56,3.3-3.56,6.1.02,9.65-.17,19.31-.48,28.96-.09,2.76.69,4.85,2.64,6.71,1.2,1.15,2.22,1.89,3.59.27.29-.35.9-.43,1.36-.64.19.24.38.49.57.73-4.25,3.79-8.51,7.59-12.97,11.57-3.1-3.33-6.09-6.54-9.08-9.75.31-.07.63-.14.94-.21.44-1.95,1.19-3.88,1.27-5.84.4-10.7.64-21.41.93-32.12.04-1.64-2.87-6.21-4.37-6.59-.64-.16-1.42.24-2.7.5,4.18-3.75,7.95-7.13,12.03-10.79Z"/>
      <path d="M59.91,73.7c-8.88-16.54-6.03-33.86-4.06-51.43,1.19.42,1.79.64,2.4.85,5.78,1.98,5.63,1.98,5.44,8.2-.41,13.04-.65,26.09-.98,39.14-.04,1.57.2,3.42-2.8,3.25Z"/>
      <path d="M68.55,26.2c.54-.11.7-.18.85-.17,2.4.29,5.62-.22,6.98,1.13,1.34,1.33.99,4.55,1.06,6.95.27,9.83-.08,19.62-3.28,29.06-1.19,3.52-2.91,6.76-5.6,9.73V26.2Z"/>
      <path d="M403.54,9.29c0,2.46-.88,4.58-2.64,6.33s-3.87,2.64-6.33,2.64-4.58-.88-6.33-2.64-2.64-3.87-2.64-6.33.88-4.57,2.64-6.33c1.76-1.76,3.87-2.64,6.33-2.64s4.58.88,6.33,2.64c1.76,1.76,2.64,3.87,2.64,6.33ZM402.27,9.29c0-2.12-.75-3.93-2.26-5.44-1.51-1.51-3.32-2.26-5.44-2.26s-3.92.76-5.43,2.27c-1.51,1.51-2.27,3.32-2.27,5.43s.75,3.93,2.25,5.44c1.5,1.51,3.32,2.26,5.45,2.26s3.92-.75,5.43-2.27c1.51-1.51,2.27-3.32,2.27-5.43ZM397.08,10.85l1.49.32c-.6,2.36-1.99,3.55-4.17,3.55-1.46,0-2.58-.54-3.36-1.63s-1.17-2.39-1.17-3.9c0-1.61.42-2.9,1.27-3.87.85-.96,1.97-1.45,3.37-1.45,2.17,0,3.52,1.14,4.06,3.43l-1.54.28c-.44-1.64-1.3-2.46-2.58-2.46-.88,0-1.57.37-2.08,1.11-.51.74-.77,1.79-.77,3.14,0,1.22.26,2.21.77,2.95s1.2,1.12,2.06,1.12c1.38,0,2.26-.86,2.64-2.59Z"/>
    </g>
  </g>
</svg>